<svg xmlns="http://www.w3.org/2000/svg" viewBox="0 0 1280 720" width="1280" height="720" role="img" aria-label="Gemini">
  <rect width="1280" height="720" fill="#FAF7F2"/>
  <rect x="0" y="0" width="1280" height="8" fill="#2C4BE0"/>
  <rect x="816" y="0" width="1" height="720" fill="#E8E4DD"/>
  <g>
    <rect x="860" y="122" width="220" height="2" rx="1" fill="#1B2EA0" opacity="0.16"/>
    <rect x="860" y="144.4" width="183" height="2" rx="1" fill="#1B2EA0" opacity="0.16"/>
    <rect x="860" y="166.8" width="201" height="2" rx="1" fill="#1B2EA0" opacity="0.16"/>
    <rect x="860" y="189.20000000000002" width="178" height="2" rx="1" fill="#1B2EA0" opacity="0.16"/>
    <rect x="860" y="211.60000000000002" width="230" height="2" rx="1" fill="#1B2EA0" opacity="0.16"/>
    <rect x="860" y="234.00000000000003" width="285" height="2" rx="1" fill="#1B2EA0" opacity="0.16"/>
    <rect x="860" y="256.40000000000003" width="242" height="2" rx="1" fill="#1B2EA0" opacity="0.16"/>
    <rect x="860" y="278.8" width="110" height="2" rx="1" fill="#1B2EA0" opacity="0.16"/>
    <rect x="860" y="301.2" width="122" height="2" rx="1" fill="#1B2EA0" opacity="0.16"/>
    <rect x="860" y="323.59999999999997" width="205" height="2" rx="1" fill="#1B2EA0" opacity="0.16"/>
    <rect x="860" y="345.99999999999994" width="252" height="2" rx="1" fill="#1B2EA0" opacity="0.16"/>
    <rect x="860" y="368.3999999999999" width="250" height="2" rx="1" fill="#1B2EA0" opacity="0.16"/>
    <rect x="860" y="388.7999999999999" width="127" height="7" rx="3.5" fill="#2C4BE0" opacity="0.39"/>
    <rect x="860" y="413.1999999999999" width="284" height="2" rx="1" fill="#1B2EA0" opacity="0.16"/>
    <rect x="860" y="435.59999999999985" width="184" height="2" rx="1" fill="#1B2EA0" opacity="0.16"/>
    <rect x="860" y="457.99999999999983" width="122" height="2" rx="1" fill="#1B2EA0" opacity="0.16"/>
    <rect x="860" y="480.3999999999998" width="214" height="2" rx="1" fill="#1B2EA0" opacity="0.16"/>
    <rect x="860" y="500.7999999999998" width="273" height="7" rx="3.5" fill="#2C4BE0" opacity="0.48"/>
    <rect x="860" y="525.1999999999998" width="248" height="2" rx="1" fill="#1B2EA0" opacity="0.16"/>
    <rect x="860" y="547.5999999999998" width="289" height="2" rx="1" fill="#1B2EA0" opacity="0.16"/>
    <rect x="860" y="569.9999999999998" width="240" height="2" rx="1" fill="#1B2EA0" opacity="0.16"/>
    <rect x="860" y="592.3999999999997" width="214" height="2" rx="1" fill="#1B2EA0" opacity="0.16"/>
    <rect x="839" y="271.79999999999995" width="6" height="27" rx="4" fill="#2C4BE0"/>
  </g>
  <text x="88" y="120" font-family="ui-monospace,'SF Mono',Menlo,monospace" font-size="19" letter-spacing="3.6" fill="#1B2EA0">TOOL VERDICT / GOOGLE</text>
  <text y="376" font-family="Georgia,'Times New Roman',serif" font-size="93" font-weight="700" fill="#1a1a1a"><tspan x="88" dy="0">Gemini</tspan></text>
  <rect x="88" y="418" width="96" height="3" fill="#2C4BE0"/>
  <text x="88" y="640" font-family="ui-monospace,'SF Mono',Menlo,monospace" font-size="18" letter-spacing="3.2" fill="#1a1a1a" opacity="0.55">SHIFT &amp; LEAD</text>
  <text x="88" y="669" font-family="Georgia,'Times New Roman',serif" font-size="19" font-style="italic" fill="#1a1a1a" opacity="0.45">www.shiftandlead.com</text>
</svg>
