<svg xmlns="http://www.w3.org/2000/svg" viewBox="0 0 1280 720" width="1280" height="720" role="img" aria-label="DeepSeek">
  <rect width="1280" height="720" fill="#FAF7F2"/>
  <rect x="0" y="0" width="1280" height="8" fill="#2C4BE0"/>
  <rect x="816" y="0" width="1" height="720" fill="#E8E4DD"/>
  <g>
    <rect x="860" y="122" width="249" height="2" rx="1" fill="#1B2EA0" opacity="0.16"/>
    <rect x="860" y="144.4" width="126" height="2" rx="1" fill="#1B2EA0" opacity="0.16"/>
    <rect x="860" y="166.8" width="186" height="2" rx="1" fill="#1B2EA0" opacity="0.16"/>
    <rect x="860" y="187.20000000000002" width="190" height="7" rx="3.5" fill="#2C4BE0" opacity="0.52"/>
    <rect x="860" y="211.60000000000002" width="124" height="2" rx="1" fill="#1B2EA0" opacity="0.16"/>
    <rect x="860" y="234.00000000000003" width="196" height="2" rx="1" fill="#1B2EA0" opacity="0.16"/>
    <rect x="860" y="256.40000000000003" width="120" height="2" rx="1" fill="#1B2EA0" opacity="0.16"/>
    <rect x="860" y="276.8" width="161" height="7" rx="3.5" fill="#2C4BE0" opacity="0.57"/>
    <rect x="860" y="301.2" width="136" height="2" rx="1" fill="#1B2EA0" opacity="0.16"/>
    <rect x="860" y="323.59999999999997" width="155" height="2" rx="1" fill="#1B2EA0" opacity="0.16"/>
    <rect x="860" y="345.99999999999994" width="155" height="2" rx="1" fill="#1B2EA0" opacity="0.16"/>
    <rect x="860" y="368.3999999999999" width="238" height="2" rx="1" fill="#1B2EA0" opacity="0.16"/>
    <rect x="860" y="390.7999999999999" width="182" height="2" rx="1" fill="#1B2EA0" opacity="0.16"/>
    <rect x="860" y="413.1999999999999" width="263" height="2" rx="1" fill="#1B2EA0" opacity="0.16"/>
    <rect x="860" y="435.59999999999985" width="283" height="2" rx="1" fill="#1B2EA0" opacity="0.16"/>
    <rect x="860" y="455.99999999999983" width="170" height="7" rx="3.5" fill="#2C4BE0" opacity="0.41"/>
    <rect x="860" y="480.3999999999998" width="147" height="2" rx="1" fill="#1B2EA0" opacity="0.16"/>
    <rect x="860" y="500.7999999999998" width="112" height="7" rx="3.5" fill="#2C4BE0" opacity="0.36"/>
    <rect x="860" y="523.1999999999998" width="180" height="7" rx="3.5" fill="#2C4BE0" opacity="0.48"/>
    <rect x="860" y="545.5999999999998" width="247" height="7" rx="3.5" fill="#2C4BE0" opacity="0.66"/>
    <rect x="860" y="569.9999999999998" width="234" height="2" rx="1" fill="#1B2EA0" opacity="0.16"/>
    <rect x="860" y="592.3999999999997" width="149" height="2" rx="1" fill="#1B2EA0" opacity="0.16"/>
    <rect x="839" y="204.6" width="6" height="27" rx="4" fill="#2C4BE0"/>
  </g>
  <text x="88" y="120" font-family="ui-monospace,'SF Mono',Menlo,monospace" font-size="19" letter-spacing="3.6" fill="#1B2EA0">TOOL VERDICT / DEEPSEEK</text>
  <text y="376" font-family="Georgia,'Times New Roman',serif" font-size="93" font-weight="700" fill="#1a1a1a"><tspan x="88" dy="0">DeepSeek</tspan></text>
  <rect x="88" y="418" width="96" height="3" fill="#2C4BE0"/>
  <text x="88" y="640" font-family="ui-monospace,'SF Mono',Menlo,monospace" font-size="18" letter-spacing="3.2" fill="#1a1a1a" opacity="0.55">SHIFT &amp; LEAD</text>
  <text x="88" y="669" font-family="Georgia,'Times New Roman',serif" font-size="19" font-style="italic" fill="#1a1a1a" opacity="0.45">www.shiftandlead.com</text>
</svg>
