<svg xmlns="http://www.w3.org/2000/svg" viewBox="0 0 1280 720" width="1280" height="720" role="img" aria-label="One summary a day: the inbox manager">
  <rect width="1280" height="720" fill="#FAF7F2"/>
  <rect x="0" y="0" width="1280" height="8" fill="#2C4BE0"/>
  <rect x="816" y="0" width="1" height="720" fill="#E8E4DD"/>
  <g>
    <rect x="860" y="122" width="215" height="2" rx="1" fill="#1B2EA0" opacity="0.16"/>
    <rect x="860" y="144.4" width="236" height="2" rx="1" fill="#1B2EA0" opacity="0.16"/>
    <rect x="860" y="166.8" width="131" height="2" rx="1" fill="#1B2EA0" opacity="0.16"/>
    <rect x="860" y="187.20000000000002" width="268" height="7" rx="3.5" fill="#2C4BE0" opacity="0.81"/>
    <rect x="860" y="209.60000000000002" width="157" height="7" rx="3.5" fill="#2C4BE0" opacity="0.43"/>
    <rect x="860" y="232.00000000000003" width="268" height="7" rx="3.5" fill="#2C4BE0" opacity="0.73"/>
    <rect x="860" y="256.40000000000003" width="169" height="2" rx="1" fill="#1B2EA0" opacity="0.16"/>
    <rect x="860" y="276.8" width="299" height="7" rx="3.5" fill="#2C4BE0" opacity="0.83"/>
    <rect x="860" y="301.2" width="303" height="2" rx="1" fill="#1B2EA0" opacity="0.16"/>
    <rect x="860" y="323.59999999999997" width="279" height="2" rx="1" fill="#1B2EA0" opacity="0.16"/>
    <rect x="860" y="343.99999999999994" width="258" height="7" rx="3.5" fill="#2C4BE0" opacity="0.43"/>
    <rect x="860" y="368.3999999999999" width="198" height="2" rx="1" fill="#1B2EA0" opacity="0.16"/>
    <rect x="860" y="390.7999999999999" width="242" height="2" rx="1" fill="#1B2EA0" opacity="0.16"/>
    <rect x="860" y="413.1999999999999" width="194" height="2" rx="1" fill="#1B2EA0" opacity="0.16"/>
    <rect x="860" y="435.59999999999985" width="108" height="2" rx="1" fill="#1B2EA0" opacity="0.16"/>
    <rect x="860" y="457.99999999999983" width="185" height="2" rx="1" fill="#1B2EA0" opacity="0.16"/>
    <rect x="860" y="478.3999999999998" width="174" height="7" rx="3.5" fill="#2C4BE0" opacity="0.44"/>
    <rect x="860" y="502.7999999999998" width="140" height="2" rx="1" fill="#1B2EA0" opacity="0.16"/>
    <rect x="860" y="525.1999999999998" width="152" height="2" rx="1" fill="#1B2EA0" opacity="0.16"/>
    <rect x="860" y="547.5999999999998" width="215" height="2" rx="1" fill="#1B2EA0" opacity="0.16"/>
    <rect x="860" y="569.9999999999998" width="112" height="2" rx="1" fill="#1B2EA0" opacity="0.16"/>
    <rect x="860" y="592.3999999999997" width="241" height="2" rx="1" fill="#1B2EA0" opacity="0.16"/>
    <rect x="839" y="249.39999999999998" width="6" height="27" rx="4" fill="#2C4BE0"/>
  </g>
  <text x="88" y="120" font-family="ui-monospace,'SF Mono',Menlo,monospace" font-size="19" letter-spacing="3.6" fill="#1B2EA0">PUT AI TO WORK</text>
  <text y="277.42" font-family="Georgia,'Times New Roman',serif" font-size="93" font-weight="700" fill="#1a1a1a"><tspan x="88" dy="0">One summary a</tspan><tspan x="88" dy="98.58">day: the inbox</tspan><tspan x="88" dy="98.58">manager</tspan></text>
  <rect x="88" y="516.58" width="96" height="3" fill="#2C4BE0"/>
  <text x="88" y="640" font-family="ui-monospace,'SF Mono',Menlo,monospace" font-size="18" letter-spacing="3.2" fill="#1a1a1a" opacity="0.55">SHIFT &amp; LEAD</text>
  <text x="88" y="669" font-family="Georgia,'Times New Roman',serif" font-size="19" font-style="italic" fill="#1a1a1a" opacity="0.45">www.shiftandlead.com</text>
</svg>
