<svg xmlns="http://www.w3.org/2000/svg" viewBox="0 0 1600 900" width="1600" height="900" role="img" aria-label="One summary a day: the inbox manager">
  <rect width="1600" height="900" fill="#FAF7F2"/>
  <rect x="0" y="0" width="1600" height="10" fill="#2C4BE0"/>
  <rect x="1020" y="0" width="1" height="900" fill="#E8E4DD"/>
  <g>
    <rect x="1075" y="153" width="269" height="2" rx="1" fill="#1B2EA0" opacity="0.16"/>
    <rect x="1075" y="181" width="295" height="2" rx="1" fill="#1B2EA0" opacity="0.16"/>
    <rect x="1075" y="209" width="164" height="2" rx="1" fill="#1B2EA0" opacity="0.16"/>
    <rect x="1075" y="234" width="335" height="9" rx="4.5" fill="#2C4BE0" opacity="0.81"/>
    <rect x="1075" y="262" width="197" height="9" rx="4.5" fill="#2C4BE0" opacity="0.43"/>
    <rect x="1075" y="290" width="335" height="9" rx="4.5" fill="#2C4BE0" opacity="0.73"/>
    <rect x="1075" y="321" width="212" height="2" rx="1" fill="#1B2EA0" opacity="0.16"/>
    <rect x="1075" y="346" width="374" height="9" rx="4.5" fill="#2C4BE0" opacity="0.83"/>
    <rect x="1075" y="377" width="378" height="2" rx="1" fill="#1B2EA0" opacity="0.16"/>
    <rect x="1075" y="405" width="349" height="2" rx="1" fill="#1B2EA0" opacity="0.16"/>
    <rect x="1075" y="430" width="323" height="9" rx="4.5" fill="#2C4BE0" opacity="0.43"/>
    <rect x="1075" y="461" width="248" height="2" rx="1" fill="#1B2EA0" opacity="0.16"/>
    <rect x="1075" y="489" width="302" height="2" rx="1" fill="#1B2EA0" opacity="0.16"/>
    <rect x="1075" y="517" width="243" height="2" rx="1" fill="#1B2EA0" opacity="0.16"/>
    <rect x="1075" y="545" width="135" height="2" rx="1" fill="#1B2EA0" opacity="0.16"/>
    <rect x="1075" y="573" width="231" height="2" rx="1" fill="#1B2EA0" opacity="0.16"/>
    <rect x="1075" y="598" width="217" height="9" rx="4.5" fill="#2C4BE0" opacity="0.44"/>
    <rect x="1075" y="629" width="175" height="2" rx="1" fill="#1B2EA0" opacity="0.16"/>
    <rect x="1075" y="657" width="190" height="2" rx="1" fill="#1B2EA0" opacity="0.16"/>
    <rect x="1075" y="685" width="269" height="2" rx="1" fill="#1B2EA0" opacity="0.16"/>
    <rect x="1075" y="713" width="140" height="2" rx="1" fill="#1B2EA0" opacity="0.16"/>
    <rect x="1075" y="741" width="302" height="2" rx="1" fill="#1B2EA0" opacity="0.16"/>
    <rect x="1049" y="312" width="8" height="34" rx="4" fill="#2C4BE0"/>
  </g>
  <text x="110" y="150" font-family="ui-monospace,'SF Mono',Menlo,monospace" font-size="24" letter-spacing="4.5" fill="#1B2EA0">PUT AI TO WORK</text>
  <text y="347.03999999999996" font-family="Georgia,'Times New Roman',serif" font-size="116" font-weight="700" fill="#1a1a1a"><tspan x="110" dy="0">One summary a</tspan><tspan x="110" dy="122.96000000000001">day: the inbox</tspan><tspan x="110" dy="122.96000000000001">manager</tspan></text>
  <rect x="110" y="644.96" width="120" height="4" fill="#2C4BE0"/>
  <text x="110" y="800" font-family="ui-monospace,'SF Mono',Menlo,monospace" font-size="22" letter-spacing="4" fill="#1a1a1a" opacity="0.55">SHIFT &amp; LEAD</text>
  <text x="110" y="836" font-family="Georgia,'Times New Roman',serif" font-size="24" font-style="italic" fill="#1a1a1a" opacity="0.45">guides.shiftandlead.com</text>
</svg>
