<svg xmlns="http://www.w3.org/2000/svg" viewBox="0 0 1600 900" width="1600" height="900" role="img" aria-label="What a prompt actually is">
  <rect width="1600" height="900" fill="#FAF7F2"/>
  <rect x="0" y="0" width="1600" height="10" fill="#2C4BE0"/>
  <rect x="1020" y="0" width="1" height="900" fill="#E8E4DD"/>
  <g>
    <rect x="1075" y="153" width="299" height="2" rx="1" fill="#1B2EA0" opacity="0.16"/>
    <rect x="1075" y="181" width="251" height="2" rx="1" fill="#1B2EA0" opacity="0.16"/>
    <rect x="1075" y="209" width="210" height="2" rx="1" fill="#1B2EA0" opacity="0.16"/>
    <rect x="1075" y="237" width="233" height="2" rx="1" fill="#1B2EA0" opacity="0.16"/>
    <rect x="1075" y="265" width="186" height="2" rx="1" fill="#1B2EA0" opacity="0.16"/>
    <rect x="1075" y="290" width="329" height="9" rx="4.5" fill="#2C4BE0" opacity="0.73"/>
    <rect x="1075" y="321" width="200" height="2" rx="1" fill="#1B2EA0" opacity="0.16"/>
    <rect x="1075" y="349" width="205" height="2" rx="1" fill="#1B2EA0" opacity="0.16"/>
    <rect x="1075" y="377" width="169" height="2" rx="1" fill="#1B2EA0" opacity="0.16"/>
    <rect x="1075" y="402" width="233" height="9" rx="4.5" fill="#2C4BE0" opacity="0.54"/>
    <rect x="1075" y="433" width="369" height="2" rx="1" fill="#1B2EA0" opacity="0.16"/>
    <rect x="1075" y="458" width="283" height="9" rx="4.5" fill="#2C4BE0" opacity="0.62"/>
    <rect x="1075" y="489" width="188" height="2" rx="1" fill="#1B2EA0" opacity="0.16"/>
    <rect x="1075" y="517" width="232" height="2" rx="1" fill="#1B2EA0" opacity="0.16"/>
    <rect x="1075" y="542" width="189" height="9" rx="4.5" fill="#2C4BE0" opacity="0.50"/>
    <rect x="1075" y="573" width="376" height="2" rx="1" fill="#1B2EA0" opacity="0.16"/>
    <rect x="1075" y="601" width="145" height="2" rx="1" fill="#1B2EA0" opacity="0.16"/>
    <rect x="1075" y="629" width="160" height="2" rx="1" fill="#1B2EA0" opacity="0.16"/>
    <rect x="1075" y="654" width="231" height="9" rx="4.5" fill="#2C4BE0" opacity="0.57"/>
    <rect x="1075" y="685" width="311" height="2" rx="1" fill="#1B2EA0" opacity="0.16"/>
    <rect x="1075" y="710" width="232" height="9" rx="4.5" fill="#2C4BE0" opacity="0.46"/>
    <rect x="1075" y="741" width="376" height="2" rx="1" fill="#1B2EA0" opacity="0.16"/>
    <rect x="1049" y="396" width="8" height="34" rx="4" fill="#2C4BE0"/>
  </g>
  <text x="110" y="150" font-family="ui-monospace,'SF Mono',Menlo,monospace" font-size="24" letter-spacing="4.5" fill="#1B2EA0">THE BASICS</text>
  <text y="408.52" font-family="Georgia,'Times New Roman',serif" font-size="116" font-weight="700" fill="#1a1a1a"><tspan x="110" dy="0">What a prompt</tspan><tspan x="110" dy="122.96000000000001">actually is</tspan></text>
  <rect x="110" y="583.48" width="120" height="4" fill="#2C4BE0"/>
  <text x="110" y="800" font-family="ui-monospace,'SF Mono',Menlo,monospace" font-size="22" letter-spacing="4" fill="#1a1a1a" opacity="0.55">SHIFT &amp; LEAD</text>
  <text x="110" y="836" font-family="Georgia,'Times New Roman',serif" font-size="24" font-style="italic" fill="#1a1a1a" opacity="0.45">guides.shiftandlead.com</text>
</svg>
